<?xml version="1.0" encoding="UTF-8" standalone="no"?>
<!DOCTYPE svg PUBLIC "-//W3C//DTD SVG 1.1//EN" "http://www.w3.org/Graphics/SVG/1.1/DTD/svg11.dtd">
<svg width="100%" height="100%" viewBox="0 0 1080 1080" version="1.1" xmlns="http://www.w3.org/2000/svg" xmlns:xlink="http://www.w3.org/1999/xlink" xml:space="preserve" xmlns:serif="http://www.serif.com/" style="fill-rule:evenodd;clip-rule:evenodd;stroke-linejoin:round;stroke-miterlimit:2;">
    <g>
        <g transform="matrix(1.79772,0,0,1.79772,-582.391,-645.63)">
            <path d="M834.435,501.945L834.435,712.039C834.435,770.016 787.365,817.086 729.388,817.086L519.294,817.086C461.317,817.086 414.247,770.016 414.247,712.039L414.247,501.945C414.247,443.968 461.317,396.898 519.294,396.898L729.388,396.898C787.365,396.898 834.435,443.968 834.435,501.945Z" style="fill:rgb(210,231,232);"/>
        </g>
        <g transform="matrix(1.79772,0,0,1.79772,-582.391,-645.63)">
            <clipPath id="_clip1">
                <rect x="413.481" y="594.804" width="75.903" height="223.476"/>
            </clipPath>
            <g clip-path="url(#_clip1)">
                <path d="M489.187,812.701C486.284,811.832 483.433,810.842 480.641,809.735L498.267,795.272C464.442,784.357 438.756,755.254 432.756,719.512C431.879,714.288 431.422,708.923 431.422,703.451L431.422,510.532C431.422,457.295 474.644,414.073 527.881,414.073L720.8,414.073C774.038,414.073 817.26,457.295 817.26,510.532L817.26,703.451C817.26,756.689 774.038,799.911 720.8,799.911L527.881,799.911C520.864,799.911 514.02,799.16 507.427,797.734L489.187,812.701Z" style="fill:rgb(245,245,245);"/>
            </g>
        </g>
        <g transform="matrix(1.65076,0,0,1.65076,-490.635,-556.424)">
            <path d="M834.435,501.945L834.435,712.039C834.435,770.016 787.365,817.086 729.388,817.086L519.294,817.086C461.317,817.086 414.247,770.016 414.247,712.039L414.247,501.945C414.247,443.968 461.317,396.898 519.294,396.898L729.388,396.898C787.365,396.898 834.435,443.968 834.435,501.945Z" style="fill:rgb(33,150,243);"/>
        </g>
        <g id="Calque1" transform="matrix(0.829356,0,0,0.829356,88.5502,89.7771)">
            <g transform="matrix(1.80377,-0.0351563,0.0351563,1.80377,-301.224,-627.552)">
                <path d="M464.831,579.225C435.207,596.537 430.483,618.317 427.092,624.054C397.325,674.398 354.507,698.374 313.165,667.584C261.741,629.285 311.135,531.441 389.777,519.578C395.738,518.972 401.849,518.662 408.095,518.662C426.269,519.688 442.297,526.759 452.765,540C454.949,542.763 456.816,545.699 458.374,548.779C461.965,555.878 464.306,569.324 464.831,579.225Z" style="fill:rgb(210,231,232);stroke:rgb(210,231,232);stroke-width:9.33px;"/>
            </g>
            <g transform="matrix(1.80377,-0.0351563,0.0351563,1.80377,-301.224,-627.552)">
                <path d="M266.48,697.291L272.848,692.169C272.931,692.404 273.014,692.639 273.099,692.874L266.48,697.291Z" style="fill:rgb(245,245,245);stroke:rgb(210,231,232);stroke-width:9.33px;"/>
            </g>
            <g transform="matrix(1.80377,-0.0351563,0.0351563,1.80377,-301.224,-627.552)">
                <path d="M464.831,579.225C468.426,577.124 472.387,575.089 476.758,573.157C483.364,570.235 535.429,557.234 559.528,609.258C599.526,725.518 463.157,822.586 356.58,779.272C342.349,773.488 328.649,765.201 315.972,754.123C294.763,735.59 280.64,714.261 272.848,692.169C245.734,615.294 295.289,529.187 389.777,519.578C311.135,531.441 261.741,629.285 313.165,667.584C354.507,698.374 397.325,674.398 427.092,624.054C430.483,618.317 435.207,596.537 464.831,579.225Z" style="fill:rgb(245,245,245);stroke:rgb(210,231,232);stroke-width:9.33px;"/>
            </g>
            <g transform="matrix(1.80377,-0.0351563,0.0351563,1.80377,-301.224,-627.552)">
                <g transform="matrix(1.01002,0,0,0.929506,-76.9767,23.5764)">
                    <path d="M536.431,597.789C535.912,587.137 533.594,572.671 530.039,565.034C528.496,561.721 526.647,558.562 524.485,555.589C514.121,541.345 498.252,533.737 480.259,532.633C474.4,532.273 468.315,532.604 462.122,533.619C468.024,532.966 474.074,532.633 480.259,532.633" style="fill:none;stroke:rgb(210,231,232);stroke-width:9.61px;stroke-linecap:round;stroke-linejoin:miter;stroke-miterlimit:1.5;"/>
                </g>
                <path d="M272.848,692.169C245.734,615.294 295.289,529.187 389.777,519.578C311.135,531.441 261.741,629.285 313.165,667.584C354.507,698.374 397.325,674.398 427.092,624.054C430.483,618.317 435.207,596.537 464.831,579.225C468.426,577.124 472.387,575.089 476.758,573.157C483.364,570.235 535.429,557.234 559.528,609.258C599.526,725.518 463.157,822.586 356.58,779.272C342.349,773.488 328.649,765.201 315.972,754.123C294.989,735.787 280.941,714.714 273.099,692.874C273.014,692.639 272.931,692.404 272.848,692.169Z" style="fill:none;fill-rule:nonzero;stroke:rgb(210,231,232);stroke-width:9.33px;stroke-linecap:round;stroke-linejoin:miter;stroke-miterlimit:1.5;"/>
                <g transform="matrix(1.25952,-0.208764,-0.208764,1.16794,79.5526,-63.9945)">
                    <path d="M264.28,699.06L268.741,695.472" style="fill:none;fill-rule:nonzero;stroke:rgb(210,231,232);stroke-width:9.27px;stroke-linecap:round;stroke-linejoin:miter;stroke-miterlimit:1.5;"/>
                </g>
            </g>
            <g transform="matrix(1.21024,0,0,1.21024,-109.954,-109.723)">
                <path d="M298.409,804.611C296.436,803.256 294.498,801.92 292.594,800.598L314.823,782.357C254.241,762.808 208.236,710.684 197.489,646.667L234.213,620.995L244.322,614.008L259.38,603.647L260.748,602.655L268.805,597.087C268.805,597.087 268.805,597.087 268.806,597.088C281.144,629.334 303.06,660.255 334.795,686.913C354.012,703.056 374.931,716.257 396.309,724.464L298.409,804.611Z" style="fill:rgb(245,245,245);"/>
            </g>
            <g transform="matrix(1.21024,0,0,1.21024,-109.954,-109.723)">
                <path d="M260.748,602.655L268.723,596.871C268.75,596.943 268.778,597.015 268.805,597.087L260.748,602.655ZM260.748,602.655L244.322,614.008L259.38,603.647L260.748,602.655ZM269.343,596.713L269.117,596.871L268.805,597.087" style="fill:none;fill-rule:nonzero;stroke:rgb(210,231,232);stroke-width:13.9px;stroke-linecap:round;stroke-linejoin:miter;stroke-miterlimit:1.5;"/>
            </g>
            <g transform="matrix(1.32747,0,0,1.56152,12.1312,-164.729)">
                <path d="M269.343,596.713L180.089,658.83L269.343,596.713Z" style="fill:none;fill-rule:nonzero;stroke:rgb(210,231,232);stroke-width:11.61px;stroke-linecap:round;stroke-linejoin:miter;stroke-miterlimit:1.5;"/>
            </g>
            <g transform="matrix(0.167325,0.203913,-0.803887,0.659647,911.923,271.422)">
                <path d="M116.704,718.622L180.089,718.622L180.089,859.175C159.441,862.705 138.289,865.989 116.704,869.024L116.704,718.622Z" style="fill:rgb(210,231,232);"/>
            </g>
            <g transform="matrix(0.156185,0.224827,-0.64979,0.451402,658.123,255.559)">
                <path d="M116.704,718.622L180.089,718.622L180.089,859.175C159.441,862.705 138.289,865.989 116.704,869.024L116.704,718.622Z" style="fill:rgb(210,231,232);"/>
            </g>
            <g transform="matrix(1.36464,0,0,1.31978,-36.1046,-130.323)">
                <clipPath id="_clip2">
                    <rect x="171.208" y="568.427" width="122.062" height="118.459"/>
                </clipPath>
                <g clip-path="url(#_clip2)">
                    <circle cx="372.046" cy="492.724" r="200.838" style="fill:none;stroke:rgb(210,231,232);stroke-width:12.53px;stroke-linecap:round;stroke-linejoin:miter;stroke-miterlimit:1.5;"/>
                </g>
            </g>
        </g>
        <clipPath id="_clip3">
            <rect x="162.309" y="423.661" width="166.511" height="401.748"/>
        </clipPath>
        <g clip-path="url(#_clip3)">
            <path d="M281.668,810.047C211.784,782.344 162.309,714.112 162.309,634.417L162.309,256.726C162.309,152.5 246.928,67.881 351.155,67.881L728.845,67.881C833.072,67.881 917.691,152.5 917.691,256.726L917.691,634.417C917.691,738.643 833.072,823.262 728.845,823.262L351.155,823.262C332.348,823.262 314.179,820.507 297.031,815.378L329.821,788.472C341.674,791.036 353.977,792.386 366.593,792.386L713.407,792.386C809.113,792.386 886.814,714.685 886.814,618.979L886.814,272.164C886.814,176.458 809.113,98.757 713.407,98.757L366.593,98.757C270.887,98.757 193.186,176.458 193.186,272.164L193.186,618.979C193.186,628.815 194.006,638.46 195.583,647.851C206.371,712.106 252.547,764.424 313.354,784.047L281.668,810.047Z" style="fill:rgb(245,245,245);"/>
        </g>
        <g transform="matrix(3.74087,-2.22045e-16,0,3.74087,-529.497,-1077.54)">
            <g transform="matrix(0.188403,1.38778e-17,-1.38778e-17,0.188403,149.416,277.5)">
                <g id="Calque2">
                    <clipPath id="_clip4">
                        <rect x="232.321" y="598.98" width="82.048" height="81.085"/>
                    </clipPath>
                    <g clip-path="url(#_clip4)">
                        <path d="M213.905,636.132L284.343,601.151C294.616,596.049 307.097,600.247 312.199,610.519C317.3,620.791 313.102,633.273 302.83,638.374L223.255,677.894C220.248,679.387 217.051,680.084 213.905,680.064C210.76,680.084 207.563,679.387 204.556,677.894L124.981,638.374C114.709,633.273 110.511,620.791 115.612,610.519C120.714,600.247 133.195,596.049 143.467,601.151L213.905,636.132Z" style="fill:rgb(245,245,245);stroke:rgb(210,231,232);stroke-width:1.7px;stroke-linecap:round;stroke-linejoin:miter;stroke-miterlimit:1.5;"/>
                    </g>
                </g>
            </g>
            <g transform="matrix(0.188403,1.38778e-17,-1.38778e-17,0.188403,149.416,277.5)">
                <g id="Calque21" serif:id="Calque2">
                    <clipPath id="_clip5">
                        <rect x="232.321" y="593.337" width="87.674" height="86.728"/>
                    </clipPath>
                    <g clip-path="url(#_clip5)">
                        <path d="M213.905,636.132L284.343,601.151C294.616,596.049 307.097,600.247 312.199,610.519C317.3,620.791 313.102,633.273 302.83,638.374L223.255,677.894C220.248,679.387 217.051,680.084 213.905,680.064C210.76,680.084 207.563,679.387 204.556,677.894L124.981,638.374C114.709,633.273 110.511,620.791 115.612,610.519C120.714,600.247 133.195,596.049 143.467,601.151L213.905,636.132Z" style="fill:rgb(210,231,232);stroke:rgb(210,231,232);stroke-width:1.65px;stroke-linecap:round;stroke-linejoin:miter;stroke-miterlimit:1.5;"/>
                    </g>
                </g>
            </g>
            <g id="Calque22" serif:id="Calque2">
                <g transform="matrix(0.188403,1.38778e-17,-1.38778e-17,0.188403,149.416,277.5)">
                    <clipPath id="_clip6">
                        <rect x="113.441" y="598.98" width="100.464" height="81.085"/>
                    </clipPath>
                    <g clip-path="url(#_clip6)">
                        <path d="M213.905,636.132L284.343,601.151C294.616,596.049 307.097,600.247 312.199,610.519C317.3,620.791 313.102,633.273 302.83,638.374L223.255,677.894C220.248,679.387 217.051,680.084 213.905,680.064C210.76,680.084 207.563,679.387 204.556,677.894L124.981,638.374C114.709,633.273 110.511,620.791 115.612,610.519C120.714,600.247 133.195,596.049 143.467,601.151L213.905,636.132Z" style="fill:rgb(33,150,243);stroke:rgb(33,150,243);stroke-width:1.65px;stroke-linecap:round;stroke-linejoin:miter;stroke-miterlimit:1.5;"/>
                    </g>
                </g>
            </g>
            <g transform="matrix(0.188403,1.38778e-17,-1.38778e-17,0.188403,149.416,277.5)">
                <clipPath id="_clip7">
                    <rect x="107.483" y="589.339" width="124.839" height="101.253"/>
                </clipPath>
                <g clip-path="url(#_clip7)">
                    <path d="M213.905,636.132L284.343,601.151C294.616,596.049 307.097,600.247 312.199,610.519C317.3,620.791 313.102,633.273 302.83,638.374L223.255,677.894C220.248,679.387 217.051,680.084 213.905,680.064C210.76,680.084 207.563,679.387 204.556,677.894L124.981,638.374C114.709,633.273 110.511,620.791 115.612,610.519C120.714,600.247 133.195,596.049 143.467,601.151L213.905,636.132Z" style="fill:rgb(33,150,243);stroke:rgb(33,150,243);stroke-width:1.7px;stroke-linecap:round;stroke-linejoin:miter;stroke-miterlimit:1.5;"/>
                </g>
            </g>
        </g>
        <g transform="matrix(1.79772,0,0,1.79772,-582.391,-645.63)">
            <clipPath id="_clip8">
                <rect x="489.384" y="804.197" width="17.486" height="12.889"/>
            </clipPath>
            <g clip-path="url(#_clip8)">
                <path d="M834.435,501.945L834.435,712.039C834.435,770.016 787.365,817.086 729.388,817.086L519.294,817.086C461.317,817.086 414.247,770.016 414.247,712.039L414.247,501.945C414.247,443.968 461.317,396.898 519.294,396.898L729.388,396.898C787.365,396.898 834.435,443.968 834.435,501.945Z" style="fill:rgb(210,231,232);"/>
            </g>
        </g>
        <g transform="matrix(0.515478,0,0,0.492201,172.148,420.021)">
            <rect x="278.968" y="747.217" width="24.968" height="24.968" style="fill:rgb(210,231,232);"/>
        </g>
        <g id="Calque3">
            <g transform="matrix(0.753586,1.08882,-0.148668,0.102895,130.439,340.709)">
                <rect x="224.016" y="663.178" width="123.934" height="119.436" style="fill:rgb(245,245,245);"/>
            </g>
            <g transform="matrix(0.855946,1.01034,-0.219293,0.185782,169.99,301.55)">
                <rect x="224.016" y="663.178" width="123.934" height="119.436" style="fill:rgb(245,245,245);"/>
            </g>
        </g>
    </g>
    <g id="Play.svg.svg" transform="matrix(1.86121,0,0,1.86121,523.672,911.946)">
        <clipPath id="_clip9">
            <rect x="-194.155" y="-250" width="405.856" height="500"/>
        </clipPath>
        <g clip-path="url(#_clip9)">
            <g transform="matrix(1,0,0,1,-250,-250)">
                <g transform="matrix(0.601146,0,0,0.601146,204.981,197.099)">
                    <path d="M72.688,82.091L74.559,82.091L67.533,70.646L67.533,44.004L100.222,44.004L100.222,131.996L67.169,131.996L44.27,95.538L42.268,95.538L49.425,107.104L49.425,131.996L16.736,131.996L16.736,44.004L48.169,44.004L72.688,82.091ZM139.799,134.023C134.687,134.023 129.87,133.062 125.348,131.138C120.825,129.197 116.84,126.503 113.4,123.072C109.969,119.632 107.283,115.647 105.36,111.124C103.436,106.61 102.475,101.784 102.475,96.673C102.475,91.474 103.436,86.631 105.36,82.152C107.283,77.673 109.969,73.713 113.4,70.273C116.84,66.834 120.825,64.157 125.348,62.233C129.87,60.31 134.687,59.348 139.799,59.348C144.998,59.348 149.841,60.31 154.32,62.233C158.817,64.157 162.776,66.834 166.198,70.273C169.638,73.713 172.315,77.673 174.239,82.152C176.179,86.631 177.158,91.474 177.158,96.673C177.158,101.784 176.179,106.61 174.239,111.124C172.315,115.647 169.638,119.632 166.198,123.072C162.776,126.503 158.817,129.197 154.32,131.138C149.841,133.062 144.998,134.023 139.799,134.023ZM139.799,90.261C138.04,90.261 136.524,90.894 135.259,92.159C134.012,93.406 133.388,94.914 133.388,96.673C133.388,98.431 134.012,99.948 135.259,101.213C136.524,102.46 138.04,103.084 139.799,103.084C141.558,103.084 143.065,102.46 144.313,101.213C145.578,99.948 146.219,98.431 146.219,96.673C146.219,94.914 145.578,93.406 144.313,92.159C143.065,90.894 141.558,90.261 139.799,90.261ZM206.685,131.996L179.03,61.471L212.213,61.471L226.916,108.118L228.692,108.118L224.914,95.902L236.091,61.471L269.179,61.471L241.645,131.996L206.685,131.996ZM313.157,61.471L344.339,61.471L344.339,97.565C344.339,103.595 343.308,108.898 341.246,113.464C339.193,118.021 336.411,121.842 332.894,124.909C329.376,127.958 325.434,130.237 321.076,131.753C316.718,133.269 312.274,134.023 307.76,134.023C303.15,134.023 298.671,133.269 294.313,131.753C289.955,130.237 286.013,127.958 282.495,124.909C278.978,121.842 276.179,118.021 274.117,113.464C272.073,108.898 271.05,103.595 271.05,97.565L271.05,61.471L302.232,61.471L302.232,96.3C302.232,98.475 302.812,100.112 303.982,101.213C305.143,102.296 306.408,102.841 307.76,102.841C309.102,102.841 310.341,102.296 311.468,101.213C312.594,100.112 313.157,98.475 313.157,96.3L313.157,61.471ZM346.722,131.996L346.722,102.72L361.797,102.72C361.632,102.374 361.45,102.053 361.242,101.767C361.035,101.481 360.853,101.204 360.688,100.935L352.128,100.935C349.2,96.742 347.649,92.341 347.458,87.74C347.302,83.14 348.134,79.076 349.979,75.559C352.085,71.521 354.744,68.489 357.959,66.435C361.19,64.391 364.881,63.03 369.04,62.355C373.19,61.679 377.652,61.341 382.426,61.341L418.243,61.341L418.243,89.767L382.426,89.767C379.983,89.767 378.111,90.625 376.803,92.341C375.512,94.065 375.044,95.884 375.391,97.808C375.72,99.324 376.491,100.701 377.695,101.949C378.926,103.197 380.581,103.82 382.669,103.82C385.181,103.82 386.983,103.015 388.066,101.395C389.175,99.766 389.556,97.938 389.201,95.936C388.881,93.909 387.754,92.436 385.831,91.518L410.965,91.518C413.729,94.437 415.609,97.522 416.614,100.753C417.619,103.985 417.974,107.121 417.688,110.145C417.403,113.152 416.623,115.872 415.358,118.307C413.27,122.318 410.584,125.299 407.318,127.239C404.043,129.163 400.308,130.445 396.115,131.077C391.939,131.693 387.46,131.996 382.669,131.996L346.722,131.996Z" style="fill:none;fill-rule:nonzero;stroke:rgb(33,150,243);stroke-width:7.07px;stroke-linejoin:miter;stroke-miterlimit:4;"/>
                </g>
                <g transform="matrix(0.601146,0,0,0.601146,49.0481,197.099)">
                    <path d="M26.007,131.996L26.007,44.004L67.872,44.004C75.158,44.004 81.5,45.338 86.898,48.024C92.322,50.701 96.732,54.288 100.128,58.768C103.524,63.247 105.846,68.151 107.094,73.47C108.35,78.79 108.532,84.101 107.648,89.395C106.773,94.68 104.754,99.558 101.601,104.037C98.473,108.516 94.167,112.103 88.683,114.78C83.198,117.458 76.475,118.801 68.513,118.801L60.967,118.801L60.967,88.26L68.513,88.26C70.93,88.26 72.724,87.636 73.885,86.389C75.072,85.124 75.669,83.651 75.669,81.97C75.669,80.289 75.072,78.825 73.885,77.577C72.724,76.312 70.93,75.68 68.513,75.68L58.697,75.68L58.697,131.996L26.007,131.996ZM110.23,43.883L141.169,43.883L141.169,131.996L110.23,131.996L110.23,43.883ZM180.01,59.348C185.026,59.348 189.714,60.293 194.072,62.173C198.43,64.053 202.285,66.652 205.638,69.97C209,73.263 211.616,77.109 213.496,81.511C215.385,85.912 216.321,90.625 216.321,95.659L216.321,131.996L186.153,131.996L186.153,95.659C186.153,93.978 185.546,92.514 184.342,91.266C183.138,90.001 181.691,89.369 180.01,89.369C178.251,89.369 176.761,90.001 175.531,91.266C174.326,92.514 173.72,93.978 173.72,95.659C173.72,97.34 174.326,98.813 175.531,100.078C176.761,101.325 178.251,101.949 180.01,101.949L184.403,101.949L184.403,131.996L180.01,131.996C174.976,131.996 170.263,131.06 165.862,129.18C161.46,127.291 157.605,124.675 154.295,121.322C150.977,117.96 148.378,114.105 146.498,109.747C144.618,105.389 143.673,100.693 143.673,95.659C143.673,90.625 144.618,85.912 146.498,81.511C148.378,77.109 150.977,73.263 154.295,69.97C157.605,66.652 161.46,64.053 165.862,62.173C170.263,60.293 174.976,59.348 180.01,59.348ZM272.897,149.462L241.741,149.462L248.646,131.753L247.754,131.753L218.08,61.471L251.159,61.471L267.369,105.484L269.275,105.484L264.848,93.545L275.808,61.471L308.991,61.471L272.897,149.462Z" style="fill:none;fill-rule:nonzero;stroke:rgb(210,231,232);stroke-width:14.46px;stroke-linejoin:miter;stroke-miterlimit:4;"/>
                </g>
                <g transform="matrix(1,0,0,1,63.8513,276.45)">
                    <g>
                        <g>
                            <path d="M0.833,0L0.833,-52.917L26,-52.917C30.385,-52.917 34.208,-52.104 37.458,-50.479C40.708,-48.865 43.354,-46.714 45.396,-44.021C47.438,-41.323 48.833,-38.375 49.583,-35.167C50.333,-31.969 50.443,-28.781 49.917,-25.604C49.385,-22.437 48.177,-19.505 46.292,-16.812C44.401,-14.115 41.802,-11.964 38.5,-10.354C35.208,-8.74 31.167,-7.937 26.375,-7.937L21.833,-7.937L21.833,-26.312L26.375,-26.312C27.833,-26.312 28.917,-26.687 29.625,-27.437C30.333,-28.187 30.688,-29.068 30.688,-30.083C30.688,-31.094 30.333,-31.979 29.625,-32.729C28.917,-33.479 27.833,-33.854 26.375,-33.854L20.479,-33.854L20.479,0L0.833,0Z" style="fill:rgb(33,150,243);fill-rule:nonzero;"/>
                        </g>
                    </g>
                </g>
                <g transform="matrix(1,0,0,1,114.558,276.45)">
                    <g>
                        <g>
                            <rect x="0.75" y="-52.979" width="18.604" height="52.979" style="fill:rgb(33,150,243);fill-rule:nonzero;"/>
                        </g>
                    </g>
                </g>
                <g transform="matrix(1,0,0,1,134.66,276.45)">
                    <g>
                        <g>
                            <path d="M22.604,-43.687C25.615,-43.687 28.438,-43.115 31.063,-41.979C33.688,-40.854 36.005,-39.292 38.021,-37.292C40.031,-35.302 41.604,-32.984 42.729,-30.333C43.865,-27.693 44.438,-24.859 44.438,-21.833L44.438,0L26.313,0L26.313,-21.833C26.313,-22.844 25.943,-23.729 25.208,-24.479C24.469,-25.24 23.604,-25.625 22.604,-25.625C21.547,-25.625 20.651,-25.24 19.917,-24.479C19.177,-23.729 18.813,-22.844 18.813,-21.833C18.813,-20.833 19.177,-19.948 19.917,-19.187C20.651,-18.437 21.547,-18.062 22.604,-18.062L25.25,-18.062L25.25,0L22.604,0C19.573,0 16.734,-0.562 14.083,-1.687C11.443,-2.823 9.13,-4.401 7.146,-6.417C5.156,-8.443 3.594,-10.76 2.458,-13.375C1.318,-16 0.75,-18.818 0.75,-21.833C0.75,-24.859 1.318,-27.693 2.458,-30.333C3.594,-32.984 5.156,-35.302 7.146,-37.292C9.13,-39.292 11.443,-40.854 14.083,-41.979C16.734,-43.115 19.573,-43.687 22.604,-43.687Z" style="fill:rgb(33,150,243);fill-rule:nonzero;"/>
                        </g>
                    </g>
                </g>
                <g transform="matrix(1,0,0,1,179.774,276.45)">
                    <g>
                        <g>
                            <path d="M33.333,10.5L14.583,10.5L18.75,-0.146L18.208,-0.146L0.375,-42.396L20.25,-42.396L30,-15.958L31.146,-15.958L28.5,-23.125L35.063,-42.396L55.021,-42.396L33.333,10.5Z" style="fill:rgb(33,150,243);fill-rule:nonzero;"/>
                        </g>
                    </g>
                </g>
            </g>
        </g>
    </g>
</svg>
